<?xml version="1.0" encoding="utf-8"?>
<!-- Generator: Adobe Illustrator 16.0.4, SVG Export Plug-In . SVG Version: 6.00 Build 0)  -->
<!DOCTYPE svg PUBLIC "-//W3C//DTD SVG 1.1//EN" "http://www.w3.org/Graphics/SVG/1.1/DTD/svg11.dtd">
<svg version="1.1" id="Layer_1" xmlns="http://www.w3.org/2000/svg" xmlns:xlink="http://www.w3.org/1999/xlink" x="0px" y="0px"
	 width="800px" height="800px" viewBox="0 0 800 800" enable-background="new 0 0 800 800" xml:space="preserve">
<rect fill="#1D2855" width="800" height="800"/>
<g>
	<polygon fill="#644E49" points="256.743,336.641 314.55,382.244 249.511,424.104 	"/>
	<polygon fill="#4F4139" points="249.511,424.104 314.55,382.244 345.913,479.551 	"/>
	<polygon fill="#644E49" points="314.55,382.244 383.547,340.371 345.913,479.551 	"/>
	<polygon fill="#90726C" points="314.55,382.244 256.743,336.641 383.547,340.371 	"/>
	<polygon fill="#5A4540" points="256.743,336.641 214.871,379.361 249.511,424.104 	"/>
	<polygon fill="#6D5552" points="214.871,379.361 184.526,413.133 249.511,424.104 	"/>
	<polygon fill="#846964" points="214.871,379.361 190.629,377.836 184.526,413.133 	"/>
	<polygon fill="#A28680" points="188.764,389.568 175.203,392.959 184.865,413.133 	"/>
	<polygon fill="#A18581" points="234.819,340.089 199.219,361.11 214.583,380.092 	"/>
	<polygon fill="#59453F" points="214.363,379.273 199.219,361.11 190.629,377.836 	"/>
	<polygon fill="#715A56" points="234.197,340.371 214.363,379.812 236.522,357.271 	"/>
	<polygon fill="#846863" points="256.743,336.641 234.197,340.371 236.522,357.271 	"/>
	<polygon fill="#A38580" points="234.197,340.371 255.683,336.816 238.238,325.453 	"/>
	<polygon fill="#513D33" points="238.238,325.453 255.048,336.641 252.21,319.858 	"/>
	<polygon fill="#6D5552" points="283.535,443.322 297.713,505.318 345.913,479.551 	"/>
	<polygon fill="#4D4039" points="297.713,505.318 337.605,539.73 345.913,479.551 	"/>
	<polygon fill="#644E49" points="297.713,505.318 302.854,581.434 337.605,539.73 	"/>
	<polygon fill="#4D4039" points="279.459,565.328 302.854,581.434 297.713,505.318 	"/>
	<polygon fill="#6C5451" points="264.372,582.195 302.854,581.434 279.459,565.328 	"/>
	<polygon fill="#4D3D37" points="254.201,573.979 264.372,582.195 279.459,565.328 	"/>
	<polygon fill="#A28682" points="345.913,479.551 337.605,539.73 378.575,481.416 	"/>
	<polygon fill="#846864" points="378.575,481.416 337.605,539.73 386.033,537.586 	"/>
	<polygon fill="#644E49" points="337.605,539.73 360.946,573.979 386.033,537.586 	"/>
	<polygon fill="#54453D" points="345.913,558.152 337.605,539.73 360.946,573.979 	"/>
	<polygon fill="#A08480" points="326.363,566.066 360.946,573.979 345.913,558.152 	"/>
	<polygon fill="#4D3F38" points="326.363,566.066 331.333,577.822 360.946,573.979 	"/>
	<polygon fill="#5A4540" points="380.156,481.416 383.547,340.371 345.913,479.551 	"/>
	<polygon fill="#745C57" points="383.547,340.371 476.9,406.035 380.186,479.551 	"/>
	<polygon fill="#90726C" points="383.547,340.371 491,319.239 476.9,406.035 	"/>
	<polygon fill="#4F4139" points="476.9,406.035 462.888,491.021 377.679,481.416 	"/>
	<polygon fill="#644E49" points="491,319.239 506.51,412.758 462.888,491.021 	"/>
	<polygon fill="#90726C" points="491,319.239 547.876,341.391 506.51,412.758 	"/>
	<polygon fill="#5A4540" points="506.51,412.758 462.888,491.021 475.212,563.016 	"/>
	<polygon fill="#644E49" points="506.51,412.758 474.643,563.576 528.892,509.557 	"/>
	<polygon fill="#5A4540" points="547.876,341.391 506.51,412.758 528.892,509.557 	"/>
	<polygon fill="#6D5552" points="528.892,509.557 518.949,570.357 474.643,563.576 	"/>
	<polygon fill="#A18581" points="506.51,583.02 518.949,570.357 476.9,563.576 	"/>
	<polygon fill="#A18581" points="506.51,583.02 518.949,570.357 476.9,563.576 	"/>
	<polygon fill="#634D48" points="475.433,562.332 506.51,583.02 460.405,583.02 	"/>
	<polygon fill="#4A3F37" points="474.643,563.576 451.817,573.979 460.405,583.02 	"/>
	<polygon fill="#A18481" points="563.477,361.054 547.876,341.391 528.892,507.975 	"/>
	<polygon fill="#6B5451" points="582.345,463.891 581.219,402.412 528.892,507.975 	"/>
	<polygon fill="#4F4139" points="582.345,463.891 528.892,507.975 577.034,554.756 	"/>
	<polygon fill="#90716C" points="581.326,402.643 563.477,361.054 528.892,507.975 	"/>
	<polygon fill="#634D48" points="607.322,533.342 582.345,464.516 577.034,554.135 	"/>
	<polygon fill="#6C5652" points="607.322,533.342 562.007,564.197 585.851,575.154 	"/>
	<polygon fill="#4E3E38" points="560.308,583.129 562.007,564.197 585.851,575.154 	"/>
	<line fill="none" x1="549.907" y1="131.798" x2="548.098" y2="138.409"/>
</g>
</svg>
